<?xml version="1.0" encoding="UTF-8" standalone="no"?><!DOCTYPE svg PUBLIC "-//W3C//DTD SVG 1.1//EN" "http://www.w3.org/Graphics/SVG/1.1/DTD/svg11.dtd"><svg width="100%" height="100%" viewBox="0 0 2250 2250" version="1.1" xmlns="http://www.w3.org/2000/svg" xmlns:xlink="http://www.w3.org/1999/xlink" xml:space="preserve" xmlns:serif="http://www.serif.com/" style="fill-rule:evenodd;clip-rule:evenodd;stroke-linejoin:round;stroke-miterlimit:2;"><g><circle cx="1125" cy="1125" r="1000.08" style="fill:#38a385;"/><g><g><path d="M301.29,681.149l73.941,-0l-0,180.362l115.399,0l0,58.924l-189.34,0l0,-239.286Z" style="fill:#c7f9cc;fill-rule:nonzero;"/><path d="M932.804,880.935l-84.224,-0l-11.589,39.5l-75.572,0l89.936,-239.286l80.633,-0l89.936,239.286l-77.368,0l-11.752,-39.5Zm-15.506,-51.742l-26.443,-86.019l-26.279,86.019l52.722,-0Z" style="fill:#c7f9cc;fill-rule:nonzero;"/><path d="M1046.57,681.149l109.85,-0c21.654,-0 39.146,2.938 52.476,8.814c13.33,5.876 24.348,14.309 33.053,25.3c8.705,10.99 15.017,23.776 18.934,38.357c3.917,14.582 5.876,30.033 5.876,46.356c-0,25.572 -2.911,45.403 -8.732,59.495c-5.822,14.092 -13.902,25.898 -24.239,35.42c-10.338,9.521 -21.437,15.859 -33.298,19.015c-16.214,4.353 -30.904,6.529 -44.07,6.529l-109.85,0l-0,-239.286Zm73.94,54.19l0,130.743l18.118,-0c15.452,-0 26.442,-1.714 32.971,-5.142c6.529,-3.428 11.644,-9.413 15.343,-17.955c3.7,-8.542 5.55,-22.389 5.55,-41.54c0,-25.354 -4.135,-42.71 -12.405,-52.069c-8.27,-9.358 -21.981,-14.037 -41.132,-14.037l-18.445,0Z" style="fill:#c7f9cc;fill-rule:nonzero;"/><path d="M690.693,798.48c0,34.781 -28.237,63.018 -63.018,63.018c-34.78,-0 -63.017,-28.237 -63.017,-63.018c-0,-30.421 21.602,-55.836 50.291,-61.729c4.111,-0.845 8.53,-1.289 12.726,-1.289c0.31,0 0,12.695 0,12.695l0,21.584l93.446,-63.018l-93.446,-63.018l0,21.141c0,-0 0.031,7.595 0,7.599c-69.145,7.591 -126.035,56.474 -126.035,126.035c-0,69.561 56.475,126.036 126.035,126.036c69.561,-0 126.036,-56.475 126.036,-126.036l-63.018,0Z" style="fill:#c7f9cc;"/><rect x="1308.55" y="681.149" width="74.104" height="239.286" style="fill:#c7f9cc;fill-rule:nonzero;"/><path d="M1436.19,681.149l69.044,-0l90.1,132.374l-0,-132.374l69.696,-0l0,239.286l-69.696,0l-89.61,-131.395l-0,131.395l-69.534,0l0,-239.286Z" style="fill:#c7f9cc;fill-rule:nonzero;"/><path d="M1834.45,833.763l-0,-49.783l114.257,-0l-0,102.015c-21.872,14.908 -41.214,25.055 -58.027,30.441c-16.812,5.387 -36.752,8.08 -59.821,8.08c-28.401,-0 -51.552,-4.843 -69.452,-14.527c-17.9,-9.685 -31.774,-24.103 -41.622,-43.255c-9.848,-19.151 -14.772,-41.132 -14.772,-65.942c0,-26.116 5.387,-48.831 16.159,-68.146c10.773,-19.315 26.552,-33.978 47.335,-43.989c16.214,-7.726 38.032,-11.589 65.453,-11.589c26.442,0 46.22,2.394 59.332,7.182c13.112,4.788 23.994,12.215 32.645,22.28c8.651,10.066 15.152,22.824 19.505,38.276l-71.329,12.732c-2.938,-9.032 -7.916,-15.942 -14.935,-20.73c-7.018,-4.788 -15.968,-7.182 -26.85,-7.182c-16.214,0 -29.136,5.632 -38.766,16.894c-9.63,11.262 -14.445,29.081 -14.445,53.456c-0,25.898 4.869,44.397 14.608,55.496c9.739,11.099 23.314,16.649 40.725,16.649c8.27,-0 16.159,-1.197 23.667,-3.591c7.509,-2.394 16.105,-6.475 25.79,-12.242l-0,-22.525l-49.457,0Z" style="fill:#c7f9cc;fill-rule:nonzero;"/></g><g><path d="M566.338,1030.21l96.991,0l37.429,145.162l37.267,-145.162l96.666,0l-0,238.572l-60.213,0l0,-181.939l-46.705,181.939l-54.517,0l-46.543,-181.939l0,181.939l-60.375,0l-0,-238.572Z" style="fill:#c7f9cc;fill-rule:nonzero;"/><path d="M881.559,1030.21l197.562,0l0,50.937l-123.68,-0l0,37.918l114.73,-0l-0,48.658l-114.73,-0l0,47.031l127.261,-0l-0,54.028l-201.143,0l-0,-238.572Z" style="fill:#c7f9cc;fill-rule:nonzero;"/><path d="M1123.39,1030.21l109.522,0c21.589,0 39.029,2.93 52.319,8.788c13.291,5.859 24.275,14.267 32.955,25.224c8.679,10.958 14.971,23.706 18.877,38.243c3.906,14.538 5.859,29.944 5.859,46.218c-0,25.495 -2.902,45.268 -8.707,59.317c-5.804,14.05 -13.859,25.821 -24.166,35.314c-10.307,9.493 -21.373,15.813 -33.198,18.959c-16.166,4.34 -30.812,6.509 -43.939,6.509l-109.522,0l-0,-238.572Zm73.72,54.029l-0,130.352l18.063,0c15.406,0 26.364,-1.709 32.873,-5.126c6.51,-3.418 11.609,-9.385 15.297,-17.901c3.689,-8.517 5.533,-22.322 5.533,-41.417c0,-25.278 -4.122,-42.582 -12.368,-51.913c-8.245,-9.33 -21.915,-13.995 -41.009,-13.995l-18.389,-0Z" style="fill:#c7f9cc;fill-rule:nonzero;"/><rect x="1384.58" y="1030.21" width="73.882" height="238.572" style="fill:#c7f9cc;fill-rule:nonzero;"/><path d="M1658.14,1229.4l-83.972,0l-11.555,39.382l-75.347,0l89.668,-238.572l80.392,0l89.668,238.572l-77.137,0l-11.717,-39.382Zm-15.46,-51.587l-26.364,-85.763l-26.2,85.763l52.564,-0Z" style="fill:#c7f9cc;fill-rule:nonzero;"/><path d="M1008.09,1504.58l64.606,19.528c-4.339,18.118 -11.174,33.253 -20.505,45.404c-9.33,12.151 -20.911,21.319 -34.744,27.503c-13.832,6.184 -31.435,9.276 -52.808,9.276c-25.929,-0 -47.112,-3.771 -63.549,-11.311c-16.436,-7.54 -30.621,-20.803 -42.555,-39.789c-11.934,-18.986 -17.901,-43.288 -17.901,-72.906c-0,-39.491 10.496,-69.841 31.489,-91.051c20.993,-21.21 50.693,-31.815 89.099,-31.815c30.052,-0 53.676,6.075 70.871,18.226c17.196,12.151 29.971,30.812 38.325,55.982l-65.095,14.483c-2.278,-7.269 -4.665,-12.585 -7.16,-15.948c-4.123,-5.641 -9.168,-9.981 -15.135,-13.019c-5.967,-3.038 -12.639,-4.556 -20.016,-4.556c-16.708,-0 -29.51,6.726 -38.406,20.179c-6.727,9.981 -10.09,25.658 -10.09,47.031c0,26.472 4.014,44.617 12.043,54.435c8.028,9.819 19.311,14.728 33.849,14.728c14.104,-0 24.763,-3.96 31.978,-11.88c7.214,-7.92 12.449,-19.42 15.704,-34.5Z" style="fill:#c7f9cc;fill-rule:nonzero;"/><path d="M1099.22,1482.94c0,-38.948 10.849,-69.272 32.548,-90.97c21.698,-21.698 51.913,-32.547 90.644,-32.547c39.708,-0 70.302,10.659 91.784,31.978c21.481,21.318 32.222,51.18 32.222,89.586c-0,27.882 -4.693,50.747 -14.077,68.594c-9.385,17.847 -22.946,31.733 -40.684,41.66c-17.739,9.927 -39.844,14.891 -66.316,14.891c-26.905,-0 -49.173,-4.286 -66.803,-12.856c-17.63,-8.571 -31.924,-22.133 -42.881,-40.685c-10.958,-18.552 -16.437,-41.769 -16.437,-69.651Zm73.72,0.325c0,24.086 4.475,41.39 13.426,51.914c8.95,10.523 21.129,15.785 36.534,15.785c15.84,-0 28.1,-5.153 36.779,-15.46c8.679,-10.307 13.019,-28.804 13.019,-55.493c-0,-22.458 -4.53,-38.867 -13.589,-49.228c-9.059,-10.361 -21.345,-15.541 -36.86,-15.541c-14.863,-0 -26.797,5.261 -35.802,15.785c-9.004,10.524 -13.507,27.936 -13.507,52.238Z" style="fill:#c7f9cc;fill-rule:nonzero;"/><rect x="1373.27" y="1535.67" width="70.79" height="66.397" style="fill:#c7f9cc;fill-rule:nonzero;"/></g></g></g></svg>